<svg width="40" height="40" viewBox="0 0 40 40" fill="none" xmlns="http://www.w3.org/2000/svg">
<path d="M20.0098 12C20.8154 12 21.5571 12.3363 22.0889 12.9609C22.3466 13.2492 22.5079 13.5536 22.6689 13.8418C22.7978 14.0819 22.9268 14.338 23.0557 14.5781L23.1035 14.6748C24.3603 17.0772 25.5523 19.5117 26.6641 21.9141L26.6807 21.9297C26.7934 22.2019 26.9219 22.4745 27.0508 22.7627C27.1313 22.9388 27.2125 23.1468 27.293 23.3389C27.5024 23.9154 27.5668 24.4764 27.4219 25.085C27.2446 26.2701 26.455 27.2957 25.3271 27.7441C24.9083 27.9203 24.457 28 24.0059 28C23.877 28 23.7158 27.9838 23.5869 27.9678C23.0552 27.9037 22.5073 27.7281 21.9756 27.4238C21.3311 27.0555 20.6865 26.5266 19.9775 25.7578C19.2686 26.5265 18.6401 27.0555 17.9795 27.4238C17.4479 27.728 16.8998 27.9037 16.3682 27.9678C16.2393 27.9838 16.078 28 15.9492 28C15.482 28 15.0468 27.9203 14.6279 27.7441C13.5162 27.2957 12.7104 26.2861 12.5332 25.085C12.4527 24.5085 12.5172 23.9479 12.7266 23.3555C12.8071 23.1473 12.8882 22.9545 12.9688 22.7783C13.0976 22.4902 13.2261 22.218 13.3389 21.9619L13.3711 21.9297C14.4829 19.5273 15.6919 17.0928 16.9326 14.6904L16.9805 14.5947C17.1094 14.3545 17.2383 14.098 17.3672 13.8418C17.5283 13.5535 17.7056 13.2492 17.9473 12.9609C18.479 12.3524 19.2042 12 20.0098 12ZM20.0586 12.9932C19.5591 12.9932 19.1079 13.2016 18.7695 13.5859C18.5924 13.794 18.4472 14.0339 18.3184 14.29C18.1895 14.5303 18.0605 14.7871 17.9316 15.0273L17.8828 15.123C16.6422 17.5093 15.4501 19.9438 14.3545 22.3301L14.3379 22.3623C14.209 22.6345 14.0805 22.9069 13.9678 23.1631C13.8872 23.3553 13.8062 23.5156 13.7578 23.6758C13.5968 24.1241 13.565 24.5245 13.6133 24.9248C13.7261 25.7576 14.2897 26.4785 15.0791 26.7988C15.4496 26.9429 15.8688 27.007 16.3037 26.959C16.7064 26.9109 17.1095 26.7831 17.5283 26.543C18.1083 26.2227 18.7047 25.7259 19.3652 24.9893C18.318 23.692 17.6577 22.4906 17.416 21.4336C17.2871 20.9532 17.2705 20.4886 17.335 20.0723C17.3994 19.6558 17.5449 19.2871 17.7705 18.9668C18.27 18.2623 19.1076 17.8301 20.042 17.8301C20.9765 17.8301 21.815 18.2461 22.3145 18.9668C22.54 19.3031 22.6846 19.6719 22.749 20.0723C22.7973 20.4886 22.7817 20.9372 22.6689 21.4336C22.4273 22.4906 21.7821 23.6754 20.7188 24.9727C21.3954 25.6933 21.9756 26.206 22.5557 26.5264C22.9746 26.7666 23.3775 26.8953 23.7803 26.9434C24.1991 26.9914 24.6182 26.9433 25.0049 26.7832C25.7943 26.4629 26.3578 25.7419 26.4707 24.9092C26.519 24.5088 26.4707 24.1076 26.374 23.6592C26.3257 23.4993 26.2455 23.3393 26.165 23.1475C26.0362 22.8912 25.9228 22.6029 25.7939 22.3467L25.7783 22.3301C24.6666 19.9438 23.4741 17.5094 22.2334 15.123L22.1855 15.0273C22.0566 14.7871 21.9277 14.5303 21.7988 14.29C21.67 14.034 21.5247 13.794 21.3477 13.5859C21.0094 13.2016 20.558 12.9933 20.0586 12.9932ZM20.0264 18.8389C19.4463 18.8389 18.9145 19.1115 18.6084 19.5439C18.4796 19.736 18.3829 19.9598 18.3506 20.2158C18.3022 20.5041 18.3179 20.825 18.3984 21.1934C18.5918 22.0582 19.1563 23.0668 20.0264 24.1719C20.8962 23.067 21.4599 22.0421 21.6533 21.1934C21.7339 20.841 21.7505 20.5041 21.7021 20.2158C21.6699 19.9599 21.573 19.736 21.4443 19.5439C21.1544 19.0956 20.6063 18.839 20.0264 18.8389Z" fill="#222222"/>
<path d="M20.0098 12C20.8154 12 21.5571 12.3363 22.0889 12.9609C22.3466 13.2492 22.5079 13.5536 22.6689 13.8418C22.7978 14.0819 22.9268 14.338 23.0557 14.5781L23.1035 14.6748C24.3603 17.0772 25.5523 19.5117 26.6641 21.9141L26.6807 21.9297C26.7934 22.2019 26.9219 22.4745 27.0508 22.7627C27.1313 22.9388 27.2125 23.1468 27.293 23.3389C27.5024 23.9154 27.5668 24.4764 27.4219 25.085C27.2446 26.2701 26.455 27.2957 25.3271 27.7441C24.9083 27.9203 24.457 28 24.0059 28C23.877 28 23.7158 27.9838 23.5869 27.9678C23.0552 27.9037 22.5073 27.7281 21.9756 27.4238C21.3311 27.0555 20.6865 26.5266 19.9775 25.7578C19.2686 26.5265 18.6401 27.0555 17.9795 27.4238C17.4479 27.728 16.8998 27.9037 16.3682 27.9678C16.2393 27.9838 16.078 28 15.9492 28C15.482 28 15.0468 27.9203 14.6279 27.7441C13.5162 27.2957 12.7104 26.2861 12.5332 25.085C12.4527 24.5085 12.5172 23.9479 12.7266 23.3555C12.8071 23.1473 12.8882 22.9545 12.9688 22.7783C13.0976 22.4902 13.2261 22.218 13.3389 21.9619L13.3711 21.9297C14.4829 19.5273 15.6919 17.0928 16.9326 14.6904L16.9805 14.5947C17.1094 14.3545 17.2383 14.098 17.3672 13.8418C17.5283 13.5535 17.7056 13.2492 17.9473 12.9609C18.479 12.3524 19.2042 12 20.0098 12ZM20.0586 12.9932C19.5591 12.9932 19.1079 13.2016 18.7695 13.5859C18.5924 13.794 18.4472 14.0339 18.3184 14.29C18.1895 14.5303 18.0605 14.7871 17.9316 15.0273L17.8828 15.123C16.6422 17.5093 15.4501 19.9438 14.3545 22.3301L14.3379 22.3623C14.209 22.6345 14.0805 22.9069 13.9678 23.1631C13.8872 23.3553 13.8062 23.5156 13.7578 23.6758C13.5968 24.1241 13.565 24.5245 13.6133 24.9248C13.7261 25.7576 14.2897 26.4785 15.0791 26.7988C15.4496 26.9429 15.8688 27.007 16.3037 26.959C16.7064 26.9109 17.1095 26.7831 17.5283 26.543C18.1083 26.2227 18.7047 25.7259 19.3652 24.9893C18.318 23.692 17.6577 22.4906 17.416 21.4336C17.2871 20.9532 17.2705 20.4886 17.335 20.0723C17.3994 19.6558 17.5449 19.2871 17.7705 18.9668C18.27 18.2623 19.1076 17.8301 20.042 17.8301C20.9765 17.8301 21.815 18.2461 22.3145 18.9668C22.54 19.3031 22.6846 19.6719 22.749 20.0723C22.7973 20.4886 22.7817 20.9372 22.6689 21.4336C22.4273 22.4906 21.7821 23.6754 20.7188 24.9727C21.3954 25.6933 21.9756 26.206 22.5557 26.5264C22.9746 26.7666 23.3775 26.8953 23.7803 26.9434C24.1991 26.9914 24.6182 26.9433 25.0049 26.7832C25.7943 26.4629 26.3578 25.7419 26.4707 24.9092C26.519 24.5088 26.4707 24.1076 26.374 23.6592C26.3257 23.4993 26.2455 23.3393 26.165 23.1475C26.0362 22.8912 25.9228 22.6029 25.7939 22.3467L25.7783 22.3301C24.6666 19.9438 23.4741 17.5094 22.2334 15.123L22.1855 15.0273C22.0566 14.7871 21.9277 14.5303 21.7988 14.29C21.67 14.034 21.5247 13.794 21.3477 13.5859C21.0094 13.2016 20.558 12.9933 20.0586 12.9932ZM20.0264 18.8389C19.4463 18.8389 18.9145 19.1115 18.6084 19.5439C18.4796 19.736 18.3829 19.9598 18.3506 20.2158C18.3022 20.5041 18.3179 20.825 18.3984 21.1934C18.5918 22.0582 19.1563 23.0668 20.0264 24.1719C20.8962 23.067 21.4599 22.0421 21.6533 21.1934C21.7339 20.841 21.7505 20.5041 21.7021 20.2158C21.6699 19.9599 21.573 19.736 21.4443 19.5439C21.1544 19.0956 20.6063 18.839 20.0264 18.8389Z" stroke="#222222"/>
</svg>
